# xmcd
#
# Track frame offsets: 
#        150
#        14597
#        36797
#        76652
#        87771
#        123608
#
# Disc length: 1984 seconds
#
# Revision: 0
# Processed by: cddbd v1.5.2PL0 Copyright (c) Steve Scherf et al.
# Submitted via: ExactAudioCopy v1.3
#
DISCID=3e07be06
DTITLE=Ball - Ball
DYEAR=2017
DGENRE=Hard Rock
TTITLE0=Balling
TTITLE1=Speeding
TTITLE2=Satanas
TTITLE3=Fyre Balls
TTITLE4=Fyre (album mix)
TTITLE5=Galaxy 666
EXTD=
EXTT0=
EXTT1=
EXTT2=
EXTT3=
EXTT4=
EXTT5=
PLAYORDER=
